<svg width="115" height="47" viewBox="0 0 115 47" fill="none" xmlns="http://www.w3.org/2000/svg">
<path d="M4.66101 46.0659C4.04867 46.0671 3.44212 45.9474 2.87615 45.7137C2.31018 45.4799 1.79593 45.1367 1.36289 44.7038C0.929855 44.2708 0.586553 43.7566 0.352677 43.1907C0.118801 42.6248 -0.00104729 42.0183 6.8944e-06 41.4059V25.9439C0.0343717 25.2145 0.214647 24.4994 0.530173 23.8409C0.8457 23.1823 1.29007 22.5938 1.83701 22.1099C4.91701 19.0639 12.341 16.0899 22.243 13.7509C33.6706 11.1468 45.3544 9.83355 57.075 9.83594V11.1249C45.4528 11.125 33.8672 12.4271 22.535 15.0069C12.765 17.2849 5.38401 20.3489 2.74601 23.0229C2.32023 23.3877 1.97192 23.8342 1.72167 24.3359C1.47141 24.8376 1.32429 25.3844 1.28901 25.9439V41.4049C1.28927 42.2992 1.64462 43.1567 2.27694 43.789C2.90925 44.4213 3.76678 44.7767 4.66101 44.7769H109.487C110.38 44.7743 111.236 44.418 111.867 43.7861C112.498 43.1541 112.853 42.298 112.854 41.4049V25.9439C112.82 25.3843 112.675 24.8371 112.425 24.3351C112.175 23.833 111.827 23.3864 111.401 23.0219C108.761 20.3479 101.386 17.2839 91.611 15.0059C80.28 12.4268 68.6958 11.125 57.075 11.1249V9.83594C68.7949 9.83415 80.478 11.1474 91.905 13.7509C101.801 16.0909 109.23 19.0639 112.314 22.1109C112.86 22.5954 113.303 23.1841 113.618 23.8423C113.933 24.5005 114.114 25.215 114.149 25.9439V41.4049C114.148 42.6407 113.657 43.8255 112.783 44.6992C111.909 45.573 110.724 46.0641 109.488 46.0649H4.66101" fill="#008E6A"/>
<path d="M57.073 12.0859C85.185 12.0859 111.893 20.1189 111.893 25.9429V41.4039C111.893 41.7203 111.831 42.0336 111.71 42.3259C111.589 42.6182 111.412 42.8839 111.188 43.1076C110.965 43.3313 110.699 43.5088 110.407 43.6298C110.115 43.7508 109.801 43.8131 109.485 43.8129H4.659C4.34245 43.8133 4.02894 43.7513 3.73642 43.6303C3.4439 43.5093 3.17814 43.3318 2.95435 43.1079C2.73056 42.884 2.55315 42.6182 2.43229 42.3256C2.31142 42.033 2.24948 41.7195 2.25 41.4029V25.9429C2.25 20.1179 28.956 12.0859 57.073 12.0859Z" fill="white"/>
<path d="M41.1387 5.05273L32.9727 6.86473L35.9207 10.0747L35.0507 15.1637L44.2187 13.6917L41.1387 5.05273Z" fill="#008E6A"/>
<path d="M35.3039 10.2587L31.8789 6.51867L41.0169 4.49667L41.5099 4.38867L44.9879 14.1487L34.3459 15.8607L35.3049 10.2587H35.3039ZM34.0669 7.21067L36.5309 9.90067L35.7469 14.4747L43.4499 13.2357L40.7699 5.72867L34.0669 7.21067ZM40.5989 5.25067L41.1389 5.06067L40.5989 5.25067Z" fill="#DB052C"/>
<path d="M73.1445 5.05273L81.3105 6.86473L78.3595 10.0747L79.2345 15.1637L70.0625 13.6917L73.1445 5.05273Z" fill="#008E6A"/>
<path d="M69.2891 14.1487L72.6011 4.86667L72.7731 4.38867L82.4011 6.51867L78.9731 10.2587L79.9361 15.8587L69.2891 14.1487ZM70.8321 13.2357L78.5321 14.4757L77.7531 9.90067L80.2161 7.21067L73.5091 5.72867L70.8321 13.2357Z" fill="#DA102E"/>
<path d="M57.1388 12.0592C61.0248 11.9232 71.2758 12.9962 71.2758 12.9962L74.8578 3.78922C74.8578 3.78922 72.6248 0.574219 57.1388 0.574219C41.8348 0.574219 39.4258 3.78922 39.4258 3.78922L43.0048 12.9962C43.0048 12.9962 53.2578 11.9232 57.1388 12.0592Z" fill="#008E6A"/>
<path d="M71.2114 13.569C71.2044 13.569 62.1304 12.621 57.8914 12.621C57.6274 12.621 57.3784 12.628 57.1574 12.63L57.1374 12.636L57.1184 12.63C56.9004 12.628 56.6564 12.62 56.3914 12.62C52.1454 12.62 43.0774 13.57 43.0624 13.57L42.6314 13.613L38.7734 3.698L38.9654 3.443C39.1684 3.2 41.7654 0.008 57.1374 0C72.6854 0.008 75.1144 3.192 75.3274 3.46L75.5014 3.707L71.6514 13.613L71.2114 13.569ZM70.9014 12.38L74.1854 3.93L73.9484 3.76C73.2271 3.31019 72.4471 2.96223 71.6304 2.726C69.2164 1.948 64.8404 1.146 57.1384 1.146C44.7824 1.144 40.9784 3.264 40.1024 3.938L43.3814 12.38C45.2424 12.198 52.5914 11.476 56.3914 11.476C56.6564 11.476 56.9094 11.481 57.1414 11.488C57.3714 11.481 57.6204 11.476 57.8924 11.476C61.6894 11.476 69.0404 12.198 70.9024 12.38H70.9014ZM57.1384 12.058L57.1624 11.488L57.1384 12.058Z" fill="#DB052C"/>
<path d="M9.587 40.8966V37.8706C10.05 37.5966 10.003 37.1566 10.003 36.7206V26.9166L8.533 27.5686L8.523 36.7216C8.523 37.1566 8.487 37.5966 8.951 37.8706V40.8966H4.25V37.8706C4.37415 37.8053 4.47835 37.7076 4.55157 37.5879C4.62479 37.4682 4.66433 37.3309 4.666 37.1906V31.2186C4.666 30.3066 4.709 30.3436 4.25 30.0636V26.6046C7.33652 24.5702 10.7201 23.0271 14.28 22.0306V25.3056C13.819 25.5776 13.863 26.1716 13.863 26.6096V36.7216C13.863 37.1566 13.819 37.5966 14.281 37.8706V40.8966H9.587ZM31.281 40.8966V37.8706C31.744 37.5966 31.998 37.5966 31.998 37.1566V21.1226L29.97 21.4326L30.016 37.1806C30.016 37.6156 30.178 37.5976 30.647 37.8706V40.8966H25.942V37.8706C26.402 37.5966 26.365 37.1566 26.365 36.7206V23.4866C26.3305 23.2315 26.2364 22.9881 26.0902 22.7762C25.9441 22.5642 25.7501 22.3897 25.524 22.2666L25.367 19.3266C28.719 18.4316 36.607 17.4186 36.607 17.4186V20.4466C36.3971 20.572 36.2228 20.749 36.1006 20.9608C35.9784 21.1726 35.9125 21.4122 35.909 21.6566L35.564 36.7216C35.564 37.1576 35.516 37.5976 35.98 37.8716V40.8966H31.28H31.281ZM15.142 40.8966V37.8706C15.557 37.5966 15.819 35.5806 15.936 35.1286L17.619 21.0556C19.2109 20.5487 20.8442 20.182 22.5 19.9596L23.942 35.3056C24.01 35.6766 24.373 37.7476 24.802 37.8706V40.8966H20.428V37.8706C20.737 37.7646 20.876 36.5986 20.876 36.2856L20.819 34.5306H18.955L18.897 36.2856C18.897 36.6136 19.068 37.7916 19.402 37.8706V40.8966H15.142ZM19.84 24.9106H19.809L19.202 31.7716H20.475L19.84 24.9106ZM36.903 40.8966V37.8706C37.323 37.5966 37.583 35.5806 37.701 35.1286L39.257 17.0846C41.143 16.8606 44.16 16.5846 44.16 16.5846L46.633 35.3056C46.706 35.6766 47.069 37.7476 47.503 37.8706V40.8966H42.687V37.8706C42.999 37.7646 43.14 36.5986 43.14 36.2856L43.082 33.5916H40.721L40.661 36.2856C40.661 36.6156 40.837 37.7916 41.171 37.8706V40.8966H36.902H36.903ZM41.847 22.1906H41.814L40.964 30.3596H42.736L41.847 22.1906ZM52.523 35.6086V20.2406C52.523 19.8046 52.565 19.3626 52.106 19.0896V16.1796C56.9 15.9336 62.323 16.1796 62.323 16.1796V19.0896C61.861 19.3626 61.9 19.8046 61.9 20.2446V36.7226C61.9 37.2956 62.504 37.6226 63.243 37.8716V42.0616H59.647V41.2636C59.647 40.7256 59.514 40.8976 58.969 40.8976H56.108C55.56 40.8976 55.429 40.7256 55.429 41.2626V42.0616H51.107V37.8056C52.537 37.7926 52.522 36.4326 52.522 35.6096L52.523 35.6086ZM58.322 19.0446H56.35V34.7216C56.3861 35.4063 56.2721 36.0906 56.016 36.7266H58.323L58.322 19.0446ZM74.227 19.8936C73.758 20.1696 73.806 20.6036 73.806 21.0416L73.696 26.8266L75.659 22.0306C75.8199 21.7288 75.9082 21.3935 75.9169 21.0516C75.9256 20.7096 75.8544 20.3703 75.709 20.0606V17.0536C77.004 17.1586 79.908 17.5576 79.908 17.5576V20.5326C79.6287 20.6262 79.3771 20.7877 79.1757 21.0025C78.9743 21.2174 78.8293 21.4789 78.754 21.7636L76.207 29.0656L78.064 36.5906C78.1825 36.9351 78.399 37.2375 78.687 37.4607C78.975 37.6838 79.3218 37.8179 79.685 37.8466L79.678 41.3676H75.254L75.247 37.8476C75.53 37.4056 75.363 37.2276 75.141 36.3476L73.725 31.1226H73.695V36.5606C73.695 36.9976 73.669 37.5706 74.133 37.8466L74.113 41.3666H69.413L69.433 37.8466C69.896 37.5716 69.833 36.9516 69.833 36.5116V32.0296L69.801 31.1226L68.359 36.2726C68.136 37.2366 67.995 37.4616 68.234 37.8466L68.268 41.3676H63.992V37.9646C64.3061 37.8671 64.5959 37.7041 64.8424 37.4864C65.0889 37.2687 65.2864 37.0013 65.422 36.7016L67.192 29.1576L64.886 21.5726C64.303 19.3526 64.008 19.4976 63.583 19.1456V16.2006C64.468 16.1926 68.268 16.4156 68.268 16.4156L68.258 19.3826C68.095 19.5356 67.206 19.7276 68.122 22.3496L69.832 26.8266L69.945 20.7226C69.945 20.2786 69.985 19.6736 69.522 19.4006V16.5026C70.224 16.5126 74.226 16.8776 74.226 16.8776V19.8936H74.227ZM84.866 41.6206C84.2662 41.6719 83.6625 41.5923 83.0964 41.3876C82.5303 41.1829 82.0154 40.8578 81.5871 40.4347C81.1588 40.0117 80.8274 39.5008 80.6158 38.9373C80.4041 38.3738 80.3172 37.771 80.361 37.1706V22.0826C80.361 19.2476 82.205 17.8436 84.866 17.9946C88.464 18.1906 89.362 19.7506 89.362 22.5856V37.1706C89.406 37.7703 89.3195 38.3723 89.1085 38.9353C88.8974 39.4983 88.5669 40.0089 88.1396 40.4318C87.7122 40.8548 87.1983 41.1801 86.6332 41.3853C86.068 41.5905 85.4651 41.6708 84.866 41.6206ZM84.866 38.2346C85.636 38.2346 85.594 37.4226 85.594 37.3436V22.3796C85.594 22.2986 85.635 21.4956 84.866 21.4956C84.086 21.4956 84.129 22.2986 84.129 22.3796V37.3426C84.129 37.4226 84.085 38.2336 84.866 38.2336V38.2346ZM96.114 40.8966V37.8706C96.577 37.5966 96.532 37.1566 96.532 36.7206V32.6366H95.055V36.7216C95.055 37.1566 95.017 37.5966 95.477 37.8706V40.8966H90.775V37.8706C91.245 37.5966 91.199 37.1566 91.199 36.2486V23.2436C91.1973 23.1022 91.1569 22.964 91.0821 22.8439C91.0074 22.7239 90.9011 22.6266 90.775 22.5626V19.4026L95.477 20.5376V23.6726C95.017 23.9466 95.055 24.2736 95.055 24.7156V30.3456H96.532V25.0026C96.532 24.5676 96.577 24.1276 96.114 23.8506V20.6676L100.814 21.8766V25.2166C100.689 25.2807 100.583 25.378 100.51 25.498C100.436 25.6179 100.397 25.7559 100.396 25.8966V36.2476C100.396 37.1556 100.35 37.5956 100.814 37.8696V40.8956H96.114V40.8966ZM106.53 27.5506C105.72 27.5506 105.82 28.3726 105.82 28.8506V37.2906C105.82 37.7706 105.72 38.5946 106.53 38.5946C107.335 38.5946 107.51 37.7696 107.51 37.2906V35.9576H110.475V39.8826C109.388 40.6488 108.102 41.0828 106.773 41.132C105.444 41.1811 104.129 40.8434 102.988 40.1596C101.915 39.2126 101.96 37.9766 101.96 36.6896V28.2296C101.899 27.668 101.961 27.0997 102.142 26.5647C102.324 26.0297 102.62 25.5409 103.011 25.1326C103.851 24.4766 105.229 24.5016 106.691 24.5566C108.164 24.6136 109.224 25.7346 110.475 26.5146V30.0466H107.51V28.8506C107.51 28.3726 107.335 27.5506 106.53 27.5506ZM103.633 22.1546C103.766 22.2586 103.866 22.3996 103.92 22.5601C103.974 22.7205 103.979 22.8933 103.935 23.0566C103.821 23.6736 103.173 24.1366 102.68 24.5566C102.541 24.4646 102.307 24.2896 102.496 24.1146C102.611 23.9146 102.89 23.7806 102.842 23.5236C102.565 23.3196 102.121 23.1886 102.121 22.7936C102.054 22.5076 102.214 22.3306 102.307 22.1336C102.503 22.001 102.736 21.932 102.973 21.9359C103.21 21.9399 103.44 22.0166 103.632 22.1556" fill="#DA102E"/>
<path d="M48.5283 4.58848C48.1443 4.68548 47.9953 4.78348 48.0513 5.22648L48.4413 8.40448C48.5073 8.92148 48.6383 9.03648 49.0713 8.98448L49.1023 9.24848L46.9233 9.53348L46.8983 9.27948C47.4383 9.19148 47.4053 8.88448 47.3753 8.65448L46.9643 5.35448C46.9233 5.02648 46.8193 4.86848 46.5053 4.91448L45.7113 5.02148C45.3953 5.06948 45.3383 5.24948 45.3763 5.57048L45.7823 8.87348C45.8373 9.30148 46.0053 9.39748 46.3953 9.35148L46.4523 9.59148L44.2613 9.95648L44.2233 9.65448C44.7723 9.56648 44.7243 9.24648 44.7003 9.02448L44.2963 5.74448C44.2403 5.29948 44.0743 5.25248 43.6773 5.25448L43.6523 5.07548C45.2803 4.74948 48.4913 4.32548 48.4913 4.32548L48.5283 4.58848ZM54.3203 3.91948L54.3403 4.18548C53.9503 4.25448 53.7953 4.34148 53.8223 4.78748L54.0263 8.05048C54.0523 8.49548 54.2143 8.56048 54.6123 8.57548L54.6283 8.84048L52.4383 8.97648L52.4263 8.72748C52.8853 8.68148 52.9593 8.45948 52.9373 8.12948L52.7283 4.73348L52.6613 4.74048L51.2613 9.06548L49.5913 9.21248L49.5763 8.92248C49.9703 8.85548 50.1263 8.76849 50.0983 8.32348L49.8953 5.05948C49.8643 4.61348 49.7053 4.55248 49.3083 4.53348L49.2913 4.27048L51.4573 4.06648L51.4873 4.38248C51.0873 4.47648 50.9543 4.54448 50.9803 4.98048L51.1853 8.24348L51.2503 8.23548L52.6413 4.00548L54.3193 3.91948H54.3203ZM60.1753 4.15848C59.7803 4.19948 59.6213 4.27348 59.6213 4.70948V7.95648C59.6213 8.39348 59.8243 8.48848 60.2213 8.47249L60.3253 10.2425H59.9833C59.9733 9.85186 59.8549 9.47171 59.6413 9.14448C59.5257 9.001 59.3763 8.88844 59.2065 8.81689C59.0367 8.74533 58.8518 8.71702 58.6683 8.73448C58.6683 8.73448 56.1173 8.68148 55.2813 8.75948L55.2763 8.47249C55.6683 8.46349 55.8293 8.34748 55.8293 7.92548V4.70948C55.8293 4.27348 55.6683 4.19948 55.2763 4.15948V3.92848L57.4743 3.89648V4.15848C57.0773 4.19948 56.9183 4.27348 56.9183 4.70948V7.98948C56.9183 8.23148 56.9533 8.47249 57.3233 8.47249H58.1273C58.4913 8.47249 58.5313 8.23248 58.5313 7.98948V4.70948C58.5313 4.27348 58.3693 4.19948 57.9773 4.15948V3.89648L60.1753 3.95048V4.15848ZM65.8963 4.63948C65.4983 4.65648 65.3373 4.71948 65.3123 5.14948L65.0973 8.37648C65.0683 8.80648 65.2663 8.91648 65.6643 8.92948L65.6513 10.6955L65.3093 10.6725C65.3242 10.2829 65.2315 9.8968 65.0413 9.55648C64.9349 9.40529 64.793 9.28249 64.6281 9.19881C64.4631 9.11514 64.2802 9.07314 64.0953 9.07648C64.0953 9.07648 61.5203 8.82448 60.7073 8.82648L60.7233 8.57149C61.1203 8.59149 61.2863 8.48848 61.3113 8.06648L61.5243 4.86948C61.5543 4.44048 61.4003 4.35748 61.0113 4.27948L61.0273 4.02348L63.2213 4.18448L63.1983 4.44348C62.8053 4.45548 62.6393 4.51648 62.6103 4.95348L62.3993 8.21248C62.3853 8.45248 62.3993 8.68948 62.7683 8.72048L63.5743 8.77848C63.9393 8.80248 63.9903 8.57148 64.0083 8.33248L64.2213 5.06948C64.2483 4.63648 64.0953 4.55748 63.7033 4.48148L63.7223 4.22248L65.9113 4.43048L65.8963 4.64048V4.63948ZM70.7703 9.98848C69.7973 9.79449 68.4333 9.63648 68.4333 9.63648L68.4733 9.37348C68.7513 9.39648 69.1083 9.42148 69.1513 9.11248L69.1413 8.85848L68.9973 7.95848L67.5093 7.74048L67.2543 8.32348L67.1593 8.61248C67.1396 8.75767 67.1769 8.90486 67.2634 9.0231C67.35 9.14134 67.479 9.22142 67.6233 9.24648L67.5903 9.51048L66.1033 9.28748L66.1413 9.02548C66.5713 8.92848 66.8163 8.43748 66.9513 8.15048L68.5663 4.64048L69.5383 4.78948L70.2433 8.68748C70.3163 9.10548 70.4253 9.75748 70.8063 9.72448L70.7713 9.98848H70.7703ZM68.9333 7.59648L68.5813 5.58748L68.4803 5.57048L67.6503 7.40748L68.9333 7.59648Z" fill="white"/>
</svg>
